<svg width="32" height="32" viewBox="0 0 32 32" fill="none" xmlns="http://www.w3.org/2000/svg">
  <defs>
    <linearGradient id="brush-gradient" x1="0%" y1="0%" x2="100%" y2="100%">
      <stop offset="0%" style="stop-color:#6366f1"/>
      <stop offset="50%" style="stop-color:#8b5cf6"/>
      <stop offset="100%" style="stop-color:#d946ef"/>
    </linearGradient>
    <linearGradient id="handle-gradient" x1="0%" y1="0%" x2="100%" y2="100%">
      <stop offset="0%" style="stop-color:#f59e0b"/>
      <stop offset="100%" style="stop-color:#d97706"/>
    </linearGradient>
  </defs>
  
  <!-- Background circle -->
  <circle cx="16" cy="16" r="15" fill="#f8fafc" stroke="#e2e8f0" stroke-width="2"/>
  
  <!-- Brush handle -->
  <rect x="20" y="22" width="3" height="8" rx="1.5" fill="url(#handle-gradient)" transform="rotate(-45 20 22)"/>
  
  <!-- Brush ferrule (metal part) -->
  <rect x="18" y="20" width="2.5" height="3" rx="0.5" fill="#64748b" transform="rotate(-45 18 20)"/>
  
  <!-- Brush bristles -->
  <path d="M12 16 L18 10 L20 12 L14 18 Z" fill="url(#brush-gradient)"/>
  <path d="M11 17 L17 11 L18.5 12.5 L12.5 18.5 Z" fill="url(#brush-gradient)" opacity="0.7"/>
  
  <!-- Paint stroke -->
  <path d="M8 20 Q12 18 16 20 Q20 22 24 20" stroke="url(#brush-gradient)" stroke-width="2" fill="none" stroke-linecap="round" opacity="0.6"/>
  
  <!-- Highlight on brush -->
  <ellipse cx="15" cy="13" rx="1" ry="2" fill="rgba(255,255,255,0.3)" transform="rotate(-45 15 13)"/>
</svg>
